. 
  
http://www.torrentday.com/        :     The Hottest Private Tracker On The Net!!!


               www . TorrentDay . Com 
(((((((((((((= Enjoy No RAR releases =))))))))))))))))))))


...................................NFO:....................................

.[img]http://img696.imageshack.us/img696/1948/secretariatm.jpg[/img]

Secretariat 2010 BDRip XVID AC3 HQ Hive-CM8


[b]Thx Hive

CM8 Doing It Right The First Time :D

Why download a touched up rip of a rip BRrip
Get the real deal BDRip
Enjoy

Source Bluray

Video: 720x304 @bitrate 1600 2pass
Audio: DTS to AC3 5.1 @448
Sample: yes included
Subs: yes in srt /subs[/b]


[url]http://www.imdb.com/title/tt1028576/[/url]


General
Complete name                    : Secretariat.2010.BDRip.XVID.AC3.HQ.Hive-CM8.avi
Format                           : AVI
Format/Info                      : Audio Video Interleave
File size                        : 1.77 GiB
Duration                         : 2h 2mn
Overall bit rate                 : 2 057 Kbps
Writing application              : Nandub v1.0rc2
Writing library                  : Nandub build 1853/release

Video
ID                               : 0
Format                           : MPEG-4 Visual
Format profile                   : Advanced Simple@L5
Format settings, BVOP            : Yes
Format settings, QPel            : Yes
Format settings, GMC             : No warppoints
Format settings, Matrix          : Default (H.263)
Muxing mode                      : Packed bitstream
Codec ID                         : XVID
Codec ID/Hint                    : XviD
Duration                         : 2h 2mn
Bit rate                         : 1 600 Kbps
Width                            : 720 pixels
Height                           : 304 pixels
Display aspect ratio             : 2.35:1
Frame rate                       : 23.976 fps
Color space                      : YUV
Chroma subsampling               : 4:2:0
Bit depth                        : 8 bits
Scan type                        : Progressive
Bits/(Pixel*Frame)               : 0.305
Stream size                      : 1.37 GiB (78%)
Writing library                  : XviD 1.2.1 (UTC 2008-12-04)

Audio
ID                               : 1
Format                           : AC-3
Format/Info                      : Audio Coding 3
Mode extension                   : CM (complete main)
Codec ID                         : 2000
Duration                         : 2h 2mn
Bit rate mode                    : Constant
Bit rate                         : 448 Kbps
Channel(s)                       : 6 channels
Channel positions                : Front: L C R, Side: L R, LFE
Sampling rate                    : 48.0 KHz
Bit depth                        : 16 bits
Stream size                      : 394 MiB (22%)
Alignment                        : Split accross interleaves
Interleave, duration             : 42 ms (1.00 video frame)
Interleave, preload duration     : 500 ms



Diane Lane ... Penny Chenery
Dylan Walsh ... John Tweedy
John Malkovich ... Lucien Laurin
Scott Glenn ... Christopher Chenery
Fred Thompson ... Bull Hancock
Margo Martindale ... Elizabeth Hamm
A.J. Michalka ... Kate Tweedy
Kevin Connolly ... Bill Nack



Penny Chenery Tweedy and colleagues guide her long-shot but precocious stallion to set, 
in 1973, the unbeaten record for winning the Triple Crown. 


[img]http://img88.imageshack.us/img88/2464/90444691.png[/img]
[img]http://img408.imageshack.us/img408/9346/sese.png[/img]
[img]http://img132.imageshack.us/img132/3835/sesesem.png[/img]
[img]http://img34.imageshack.us/img34/3200/sesesese.png[/img]
[img]http://img823.imageshack.us/img823/8959/sesesesese.png[/img]
[img]http://img40.imageshack.us/img40/5768/sseesesesese.png[/img]
[img]http://img530.imageshack.us/img530/7519/sseesseesesese.png[/img]





Greetz

iNK,LUSi,,MAGNET,CLASSiFiED,THC,LEGi0N,IMAGiNE,ViSiON,WBZ,FLAWL3SS,NOVA
Rapeseed,D2U,SAFC,goldadvance,MEMORY100,KaN1vE,Unevano,Pinnz,Wayne,Mr Hive
and all P2P groups 
Great Work Guys :D